# xmcd
#
# Track frame offsets:
#	150
#	16596
#	37525
#	59626
#	81883
#	99632
#	118828
#	135698
#	151323
#	165813
#	182465
#	197643
#	213069
#	228487
#	246262
#	269847
#	286812
#	304506
#	325139
#
# Disc length: 4701 seconds
#
# Revision: 0
# Processed by: cddbd v1.5.2PL0 Copyright (c) Steve Scherf et al.
# Submitted via: audiograbber 1.83.01
#
DISCID=f5125b13
DTITLE=Ahoj - ahoj
DYEAR=1900
DGENRE=
TTITLE0=GARBY PONTE - Geordie
TTITLE1=Colonia  - za tvoje snene oci
TTITLE2=Sedam dana-10 - Sedam dana
TTITLE3=Black Eyes Peace - Shut up
TTITLE4=Brothers - SEXY GIRL (REMIX)
TTITLE5=Christina Aguilera  - Can´t hold us dow
TTITLE6=Enrique  Iglesias - Not in love
TTITLE7=In-Grid - Tango
TTITLE8=SPECIAL D. - Come With Me
TTITLE9=Safri Duo - All the people in the work
TTITLE10=NANCE - IF YOu Wanna Dance
TTITLE11=NG3 - The Anthem
TTITLE12=BERENICE - I´d Rather Sleep Alone
TTITLE13=DA BUZZ - Can YOu Feel The Something Too
TTITLE14=DJ ALIGATOR vs BLUE ICE - Keep Me Hanging On
TTITLE15=HARD IN TANGO - This Is My DJ
TTITLE16=SUGARBABES - In The Midle
TTITLE17=KARMA - Noèas Te Nedam Nikome
TTITLE18=LIMP BIZKIT - Behind Blue Eyes
EXTD=
EXTT0=
EXTT1=
EXTT2=
EXTT3=
EXTT4=
EXTT5=
EXTT6=
EXTT7=
EXTT8=
EXTT9=
EXTT10=
EXTT11=
EXTT12=
EXTT13=
EXTT14=
EXTT15=
EXTT16=
EXTT17=
EXTT18=
PLAYORDER=
